<?xml version="1.0" encoding="UTF-8" standalone="no"?>
<svg
   viewBox="0 0 512 512"
   version="1.1"
   id="svg1"
   sodipodi:docname="flexysnap.svg"
   inkscape:version="1.4.2 (ebf0e940, 2025-05-08)"
   inkscape:export-filename="flexysnap.png"
   inkscape:export-xdpi="96"
   inkscape:export-ydpi="96"
   xmlns:inkscape="http://www.inkscape.org/namespaces/inkscape"
   xmlns:sodipodi="http://sodipodi.sourceforge.net/DTD/sodipodi-0.dtd"
   xmlns="http://www.w3.org/2000/svg"
   xmlns:svg="http://www.w3.org/2000/svg">
  <defs
     id="defs1" />
  <sodipodi:namedview
     id="namedview1"
     pagecolor="#ffffff"
     bordercolor="#000000"
     borderopacity="0.25"
     inkscape:showpageshadow="2"
     inkscape:pageopacity="0.0"
     inkscape:pagecheckerboard="0"
     inkscape:deskcolor="#d1d1d1"
     inkscape:zoom="1.625"
     inkscape:cx="255.69231"
     inkscape:cy="255.69231"
     inkscape:window-width="2560"
     inkscape:window-height="1382"
     inkscape:window-x="2560"
     inkscape:window-y="30"
     inkscape:window-maximized="1"
     inkscape:current-layer="svg1" />
  <!--!Font Awesome Pro v7.3.1 by @fontawesome - https://fontawesome.com License - https://fontawesome.com/license (Commercial License) Copyright 2026 Fonticons, Inc.-->
  <path
     d="m 112,320 h 128 c 26.5,0 48,21.5 48,48 v 64 c 0,26.5 -21.5,48 -48,48 H 112 C 85.5,480 64,458.5 64,432 v -64 c 0,-26.5 21.5,-48 48,-48 z"
     id="path3"
     style="fill:#0066cc;fill-opacity:1" />
  <path
     d="m 352,112 c 0,-26.5 21.5,-48 48,-48 h 64 c 26.5,0 48,21.5 48,48 v 256 c 0,26.5 -21.5,48 -48,48 h -64 c -26.5,0 -48,-21.5 -48,-48 z"
     id="path2"
     style="fill:#2ebc6f;fill-opacity:1" />
  <path
     d="M 0,112 C 0,85.5 21.5,64 48,64 h 192 c 26.5,0 48,21.5 48,48 v 96 c 0,26.5 -21.5,48 -48,48 H 48 C 21.5,256 0,234.5 0,208 Z"
     id="path1"
     style="fill:#e6a500;fill-opacity:1" />
</svg>
